<?xml version="1.0" encoding="UTF-8" standalone="no"?>
<!DOCTYPE svg PUBLIC "-//W3C//DTD SVG 1.1//EN"
 "http://www.w3.org/Graphics/SVG/1.1/DTD/svg11.dtd">
<!-- Generated by graphviz version 2.38.0 (20140413.2041)
 -->
<!-- Title: snakemake_dag Pages: 1 -->
<svg width="593pt" height="486pt"
 viewBox="0.00 0.00 592.50 486.00" xmlns="http://www.w3.org/2000/svg" xmlns:xlink="http://www.w3.org/1999/xlink">
<g id="graph0" class="graph" transform="scale(1 1) rotate(0) translate(4 482)">
<title>snakemake_dag</title>
<polygon fill="white" stroke="none" points="-4,4 -4,-482 588.5,-482 588.5,4 -4,4"/>
<!-- 0 -->
<g id="node1" class="node"><title>0</title>
<path fill="none" stroke="#afd856" stroke-width="2" d="M323,-36C323,-36 293,-36 293,-36 287,-36 281,-30 281,-24 281,-24 281,-12 281,-12 281,-6 287,-0 293,-0 293,-0 323,-0 323,-0 329,-0 335,-6 335,-12 335,-12 335,-24 335,-24 335,-30 329,-36 323,-36"/>
<text text-anchor="middle" x="308" y="-15.5" font-family="sans" font-size="10.00">all</text>
</g>
<!-- 1 -->
<g id="node2" class="node"><title>1</title>
<path fill="none" stroke="#70d856" stroke-width="2" d="M456,-108C456,-108 386,-108 386,-108 380,-108 374,-102 374,-96 374,-96 374,-84 374,-84 374,-78 380,-72 386,-72 386,-72 456,-72 456,-72 462,-72 468,-78 468,-84 468,-84 468,-96 468,-96 468,-102 462,-108 456,-108"/>
<text text-anchor="middle" x="421" y="-87.5" font-family="sans" font-size="10.00">samtools_index</text>
</g>
<!-- 1&#45;&gt;0 -->
<g id="edge1" class="edge"><title>1&#45;&gt;0</title>
<path fill="none" stroke="grey" stroke-width="2" d="M393.357,-71.8761C378.472,-62.6553 359.934,-51.1717 343.941,-41.2646"/>
<polygon fill="grey" stroke="grey" stroke-width="2" points="345.702,-38.238 335.358,-35.9471 342.015,-44.1887 345.702,-38.238"/>
</g>
<!-- 2 -->
<g id="node3" class="node"><title>2</title>
<path fill="none" stroke="#70d856" stroke-width="2" d="M194,-108C194,-108 124,-108 124,-108 118,-108 112,-102 112,-96 112,-96 112,-84 112,-84 112,-78 118,-72 124,-72 124,-72 194,-72 194,-72 200,-72 206,-78 206,-84 206,-84 206,-96 206,-96 206,-102 200,-108 194,-108"/>
<text text-anchor="middle" x="159" y="-87.5" font-family="sans" font-size="10.00">samtools_index</text>
</g>
<!-- 2&#45;&gt;0 -->
<g id="edge2" class="edge"><title>2&#45;&gt;0</title>
<path fill="none" stroke="grey" stroke-width="2" d="M195.45,-71.8761C218.62,-60.9904 248.504,-46.9511 271.655,-36.0749"/>
<polygon fill="grey" stroke="grey" stroke-width="2" points="273.242,-39.1961 280.805,-31.7761 270.266,-32.8605 273.242,-39.1961"/>
</g>
<!-- 3 -->
<g id="node4" class="node"><title>3</title>
<path fill="none" stroke="#70d856" stroke-width="2" d="M306,-108C306,-108 236,-108 236,-108 230,-108 224,-102 224,-96 224,-96 224,-84 224,-84 224,-78 230,-72 236,-72 236,-72 306,-72 306,-72 312,-72 318,-78 318,-84 318,-84 318,-96 318,-96 318,-102 312,-108 306,-108"/>
<text text-anchor="middle" x="271" y="-87.5" font-family="sans" font-size="10.00">samtools_index</text>
</g>
<!-- 3&#45;&gt;0 -->
<g id="edge3" class="edge"><title>3&#45;&gt;0</title>
<path fill="none" stroke="grey" stroke-width="2" d="M280.146,-71.6966C284.403,-63.6436 289.556,-53.8945 294.266,-44.9824"/>
<polygon fill="grey" stroke="grey" stroke-width="2" points="297.38,-46.5809 298.959,-36.1043 291.192,-43.3097 297.38,-46.5809"/>
</g>
<!-- 4 -->
<g id="node5" class="node"><title>4</title>
<path fill="none" stroke="#70d856" stroke-width="2" d="M568,-108C568,-108 498,-108 498,-108 492,-108 486,-102 486,-96 486,-96 486,-84 486,-84 486,-78 492,-72 498,-72 498,-72 568,-72 568,-72 574,-72 580,-78 580,-84 580,-84 580,-96 580,-96 580,-102 574,-108 568,-108"/>
<text text-anchor="middle" x="533" y="-93" font-family="sans" font-size="10.00">samtools_index</text>
<text text-anchor="middle" x="533" y="-82" font-family="sans" font-size="10.00">cov: 30</text>
</g>
<!-- 4&#45;&gt;0 -->
<g id="edge4" class="edge"><title>4&#45;&gt;0</title>
<path fill="none" stroke="grey" stroke-width="2" d="M485.833,-74.3257C443.839,-61.2611 383.26,-42.4143 344.766,-30.4384"/>
<polygon fill="grey" stroke="grey" stroke-width="2" points="345.593,-27.0302 335.005,-27.4015 343.514,-33.7142 345.593,-27.0302"/>
</g>
<!-- 5 -->
<g id="node6" class="node"><title>5</title>
<path fill="none" stroke="#70d856" stroke-width="2" d="M82,-108C82,-108 12,-108 12,-108 6,-108 -7.10543e-15,-102 -7.10543e-15,-96 -7.10543e-15,-96 -7.10543e-15,-84 -7.10543e-15,-84 -7.10543e-15,-78 6,-72 12,-72 12,-72 82,-72 82,-72 88,-72 94,-78 94,-84 94,-84 94,-96 94,-96 94,-102 88,-108 82,-108"/>
<text text-anchor="middle" x="47" y="-93" font-family="sans" font-size="10.00">samtools_index</text>
<text text-anchor="middle" x="47" y="-82" font-family="sans" font-size="10.00">cov: 30</text>
</g>
<!-- 5&#45;&gt;0 -->
<g id="edge5" class="edge"><title>5&#45;&gt;0</title>
<path fill="none" stroke="grey" stroke-width="2" d="M94.012,-74.5731C97.0497,-73.689 100.065,-72.8244 103,-72 161.4,-55.5942 229.689,-38.317 270.853,-28.1085"/>
<polygon fill="grey" stroke="grey" stroke-width="2" points="271.844,-31.4688 280.712,-25.6702 270.164,-24.6736 271.844,-31.4688"/>
</g>
<!-- 6 -->
<g id="node7" class="node"><title>6</title>
<path fill="none" stroke="#70d856" stroke-width="2" d="M382,-180C382,-180 312,-180 312,-180 306,-180 300,-174 300,-168 300,-168 300,-156 300,-156 300,-150 306,-144 312,-144 312,-144 382,-144 382,-144 388,-144 394,-150 394,-156 394,-156 394,-168 394,-168 394,-174 388,-180 382,-180"/>
<text text-anchor="middle" x="347" y="-165" font-family="sans" font-size="10.00">samtools_index</text>
<text text-anchor="middle" x="347" y="-154" font-family="sans" font-size="10.00">cov: 30</text>
</g>
<!-- 6&#45;&gt;0 -->
<g id="edge6" class="edge"><title>6&#45;&gt;0</title>
<path fill="none" stroke="grey" stroke-width="2" d="M343.785,-143.779C340.263,-125.733 334.155,-96.6376 327,-72 324.481,-63.3244 321.304,-54.0051 318.273,-45.6376"/>
<polygon fill="grey" stroke="grey" stroke-width="2" points="321.461,-44.169 314.702,-36.0104 314.898,-46.6035 321.461,-44.169"/>
</g>
<!-- 7 -->
<g id="node8" class="node"><title>7</title>
<path fill="none" stroke="#56d873" stroke-width="2" d="M490,-180C490,-180 424,-180 424,-180 418,-180 412,-174 412,-168 412,-168 412,-156 412,-156 412,-150 418,-144 424,-144 424,-144 490,-144 490,-144 496,-144 502,-150 502,-156 502,-156 502,-168 502,-168 502,-174 496,-180 490,-180"/>
<text text-anchor="middle" x="457" y="-165" font-family="sans" font-size="10.00">samtools_view</text>
<text text-anchor="middle" x="457" y="-154" font-family="sans" font-size="10.00">cov: 10</text>
</g>
<!-- 7&#45;&gt;1 -->
<g id="edge7" class="edge"><title>7&#45;&gt;1</title>
<path fill="none" stroke="grey" stroke-width="2" d="M448.101,-143.697C444.003,-135.728 439.051,-126.1 434.507,-117.264"/>
<polygon fill="grey" stroke="grey" stroke-width="2" points="437.483,-115.396 429.797,-108.104 431.258,-118.598 437.483,-115.396"/>
</g>
<!-- 8 -->
<g id="node9" class="node"><title>8</title>
<path fill="none" stroke="#56d873" stroke-width="2" d="M162,-180C162,-180 96,-180 96,-180 90,-180 84,-174 84,-168 84,-168 84,-156 84,-156 84,-150 90,-144 96,-144 96,-144 162,-144 162,-144 168,-144 174,-150 174,-156 174,-156 174,-168 174,-168 174,-174 168,-180 162,-180"/>
<text text-anchor="middle" x="129" y="-165" font-family="sans" font-size="10.00">samtools_view</text>
<text text-anchor="middle" x="129" y="-154" font-family="sans" font-size="10.00">cov: 10</text>
</g>
<!-- 8&#45;&gt;2 -->
<g id="edge8" class="edge"><title>8&#45;&gt;2</title>
<path fill="none" stroke="grey" stroke-width="2" d="M136.416,-143.697C139.794,-135.813 143.87,-126.304 147.623,-117.546"/>
<polygon fill="grey" stroke="grey" stroke-width="2" points="150.947,-118.675 151.67,-108.104 144.513,-115.917 150.947,-118.675"/>
</g>
<!-- 9 -->
<g id="node10" class="node"><title>9</title>
<path fill="none" stroke="#56d873" stroke-width="2" d="M270,-180C270,-180 204,-180 204,-180 198,-180 192,-174 192,-168 192,-168 192,-156 192,-156 192,-150 198,-144 204,-144 204,-144 270,-144 270,-144 276,-144 282,-150 282,-156 282,-156 282,-168 282,-168 282,-174 276,-180 270,-180"/>
<text text-anchor="middle" x="237" y="-165" font-family="sans" font-size="10.00">samtools_view</text>
<text text-anchor="middle" x="237" y="-154" font-family="sans" font-size="10.00">cov: 10</text>
</g>
<!-- 9&#45;&gt;3 -->
<g id="edge9" class="edge"><title>9&#45;&gt;3</title>
<path fill="none" stroke="grey" stroke-width="2" d="M245.404,-143.697C249.275,-135.728 253.952,-126.1 258.243,-117.264"/>
<polygon fill="grey" stroke="grey" stroke-width="2" points="261.471,-118.629 262.692,-108.104 255.175,-115.57 261.471,-118.629"/>
</g>
<!-- 10 -->
<g id="node11" class="node"><title>10</title>
<path fill="none" stroke="#d85656" stroke-width="2" d="M479,-252C479,-252 435,-252 435,-252 429,-252 423,-246 423,-240 423,-240 423,-228 423,-228 423,-222 429,-216 435,-216 435,-216 479,-216 479,-216 485,-216 491,-222 491,-228 491,-228 491,-240 491,-240 491,-246 485,-252 479,-252"/>
<text text-anchor="middle" x="457" y="-231.5" font-family="sans" font-size="10.00">bwa_mem</text>
</g>
<!-- 10&#45;&gt;4 -->
<g id="edge10" class="edge"><title>10&#45;&gt;4</title>
<path fill="none" stroke="grey" stroke-width="2" d="M479.641,-215.846C490.628,-206.401 503.122,-193.805 511,-180 521.88,-160.932 527.423,-136.576 530.221,-118.164"/>
<polygon fill="grey" stroke="grey" stroke-width="2" points="533.711,-118.472 531.571,-108.096 526.773,-117.542 533.711,-118.472"/>
</g>
<!-- 10&#45;&gt;7 -->
<g id="edge13" class="edge"><title>10&#45;&gt;7</title>
<path fill="none" stroke="grey" stroke-width="2" d="M457,-215.697C457,-207.983 457,-198.712 457,-190.112"/>
<polygon fill="grey" stroke="grey" stroke-width="2" points="460.5,-190.104 457,-180.104 453.5,-190.104 460.5,-190.104"/>
</g>
<!-- 11 -->
<g id="node12" class="node"><title>11</title>
<path fill="none" stroke="#d85656" stroke-width="2" d="M151,-252C151,-252 107,-252 107,-252 101,-252 95,-246 95,-240 95,-240 95,-228 95,-228 95,-222 101,-216 107,-216 107,-216 151,-216 151,-216 157,-216 163,-222 163,-228 163,-228 163,-240 163,-240 163,-246 157,-252 151,-252"/>
<text text-anchor="middle" x="129" y="-231.5" font-family="sans" font-size="10.00">bwa_mem</text>
</g>
<!-- 11&#45;&gt;5 -->
<g id="edge11" class="edge"><title>11&#45;&gt;5</title>
<path fill="none" stroke="grey" stroke-width="2" d="M106.986,-215.87C96.03,-206.342 83.3735,-193.664 75,-180 63.272,-160.861 56.0365,-136.364 51.8664,-117.918"/>
<polygon fill="grey" stroke="grey" stroke-width="2" points="55.2859,-117.171 49.8052,-108.104 48.4354,-118.61 55.2859,-117.171"/>
</g>
<!-- 11&#45;&gt;8 -->
<g id="edge14" class="edge"><title>11&#45;&gt;8</title>
<path fill="none" stroke="grey" stroke-width="2" d="M129,-215.697C129,-207.983 129,-198.712 129,-190.112"/>
<polygon fill="grey" stroke="grey" stroke-width="2" points="132.5,-190.104 129,-180.104 125.5,-190.104 132.5,-190.104"/>
</g>
<!-- 12 -->
<g id="node13" class="node"><title>12</title>
<path fill="none" stroke="#d85656" stroke-width="2" d="M309,-252C309,-252 265,-252 265,-252 259,-252 253,-246 253,-240 253,-240 253,-228 253,-228 253,-222 259,-216 265,-216 265,-216 309,-216 309,-216 315,-216 321,-222 321,-228 321,-228 321,-240 321,-240 321,-246 315,-252 309,-252"/>
<text text-anchor="middle" x="287" y="-231.5" font-family="sans" font-size="10.00">bwa_mem</text>
</g>
<!-- 12&#45;&gt;6 -->
<g id="edge12" class="edge"><title>12&#45;&gt;6</title>
<path fill="none" stroke="grey" stroke-width="2" d="M301.831,-215.697C309.025,-207.305 317.797,-197.07 325.69,-187.861"/>
<polygon fill="grey" stroke="grey" stroke-width="2" points="328.489,-189.975 332.339,-180.104 323.174,-185.419 328.489,-189.975"/>
</g>
<!-- 12&#45;&gt;9 -->
<g id="edge15" class="edge"><title>12&#45;&gt;9</title>
<path fill="none" stroke="grey" stroke-width="2" d="M274.64,-215.697C268.767,-207.474 261.631,-197.483 255.158,-188.421"/>
<polygon fill="grey" stroke="grey" stroke-width="2" points="257.878,-186.207 249.217,-180.104 252.182,-190.276 257.878,-186.207"/>
</g>
<!-- 13 -->
<g id="node14" class="node"><title>13</title>
<path fill="none" stroke="#56c9d8" stroke-width="2" d="M303,-478C303,-478 235,-478 235,-478 229,-478 223,-472 223,-466 223,-466 223,-454 223,-454 223,-448 229,-442 235,-442 235,-442 303,-442 303,-442 309,-442 315,-448 315,-454 315,-454 315,-466 315,-466 315,-472 309,-478 303,-478"/>
<text text-anchor="middle" x="269" y="-457.5" font-family="sans" font-size="10.00">samtools_faidx</text>
</g>
<!-- 13&#45;&gt;10 -->
<g id="edge16" class="edge"><title>13&#45;&gt;10</title>
<path fill="none" stroke="grey" stroke-width="2" d="M294.412,-441.854C306.628,-432.497 320.618,-419.978 330,-406 360.861,-360.021 335.386,-331.224 370,-288 381.552,-273.575 398.168,-262.095 413.79,-253.56"/>
<polygon fill="grey" stroke="grey" stroke-width="2" points="415.56,-256.585 422.827,-248.875 412.338,-250.371 415.56,-256.585"/>
</g>
<!-- 13&#45;&gt;11 -->
<g id="edge19" class="edge"><title>13&#45;&gt;11</title>
<path fill="none" stroke="grey" stroke-width="2" d="M222.878,-450.77C195.334,-443.515 161.775,-430.167 141,-406 106.568,-365.947 114.11,-299.24 121.977,-262.088"/>
<polygon fill="grey" stroke="grey" stroke-width="2" points="125.465,-262.532 124.275,-252.004 118.64,-260.976 125.465,-262.532"/>
</g>
<!-- 13&#45;&gt;12 -->
<g id="edge22" class="edge"><title>13&#45;&gt;12</title>
<path fill="none" stroke="grey" stroke-width="2" d="M237.992,-441.909C186.977,-411.56 94.8943,-345.992 136,-288 159.982,-254.167 207.333,-241.769 242.648,-237.313"/>
<polygon fill="grey" stroke="grey" stroke-width="2" points="243.16,-240.778 252.721,-236.212 242.4,-233.819 243.16,-240.778"/>
</g>
<!-- 14 -->
<g id="node15" class="node"><title>14</title>
<path fill="none" stroke="#5692d8" stroke-width="2" d="M309.5,-326.5C309.5,-326.5 264.5,-326.5 264.5,-326.5 258.5,-326.5 252.5,-320.5 252.5,-314.5 252.5,-314.5 252.5,-302.5 252.5,-302.5 252.5,-296.5 258.5,-290.5 264.5,-290.5 264.5,-290.5 309.5,-290.5 309.5,-290.5 315.5,-290.5 321.5,-296.5 321.5,-302.5 321.5,-302.5 321.5,-314.5 321.5,-314.5 321.5,-320.5 315.5,-326.5 309.5,-326.5"/>
<text text-anchor="middle" x="287" y="-306" font-family="sans" font-size="10.00">bwa_index</text>
</g>
<!-- 13&#45;&gt;14 -->
<g id="edge25" class="edge"><title>13&#45;&gt;14</title>
<path fill="none" stroke="grey" stroke-width="2" d="M239.96,-441.837C227.682,-432.866 214.692,-420.68 208,-406 200.441,-389.419 199.599,-381.17 208,-365 215.808,-349.973 229.757,-338.163 243.784,-329.371"/>
<polygon fill="grey" stroke="grey" stroke-width="2" points="245.612,-332.356 252.474,-324.285 242.076,-326.315 245.612,-332.356"/>
</g>
<!-- 18 -->
<g id="node19" class="node"><title>18</title>
<path fill="none" stroke="#d88d56" stroke-width="2" d="M572.5,-406C572.5,-406 505.5,-406 505.5,-406 499.5,-406 493.5,-400 493.5,-394 493.5,-394 493.5,-377 493.5,-377 493.5,-371 499.5,-365 505.5,-365 505.5,-365 572.5,-365 572.5,-365 578.5,-365 584.5,-371 584.5,-377 584.5,-377 584.5,-394 584.5,-394 584.5,-400 578.5,-406 572.5,-406"/>
<text text-anchor="middle" x="539" y="-394" font-family="sans" font-size="10.00">survivor_simsv</text>
<text text-anchor="middle" x="539" y="-383" font-family="sans" font-size="10.00">genotype: hmz</text>
<text text-anchor="middle" x="539" y="-372" font-family="sans" font-size="10.00">svtype: INDEL</text>
</g>
<!-- 13&#45;&gt;18 -->
<g id="edge30" class="edge"><title>13&#45;&gt;18</title>
<path fill="none" stroke="grey" stroke-width="2" d="M315.072,-449.033C356.713,-439.713 419.832,-424.818 483.663,-405.96"/>
<polygon fill="grey" stroke="grey" stroke-width="2" points="484.915,-409.238 493.496,-403.024 482.913,-402.531 484.915,-409.238"/>
</g>
<!-- 19 -->
<g id="node20" class="node"><title>19</title>
<path fill="none" stroke="#d88d56" stroke-width="2" d="M309,-406C309,-406 229,-406 229,-406 223,-406 217,-400 217,-394 217,-394 217,-377 217,-377 217,-371 223,-365 229,-365 229,-365 309,-365 309,-365 315,-365 321,-371 321,-377 321,-377 321,-394 321,-394 321,-400 315,-406 309,-406"/>
<text text-anchor="middle" x="269" y="-394" font-family="sans" font-size="10.00">survivor_simsv</text>
<text text-anchor="middle" x="269" y="-383" font-family="sans" font-size="10.00">genotype: hmz&#45;sv</text>
<text text-anchor="middle" x="269" y="-372" font-family="sans" font-size="10.00">svtype: INDEL</text>
</g>
<!-- 13&#45;&gt;19 -->
<g id="edge32" class="edge"><title>13&#45;&gt;19</title>
<path fill="none" stroke="grey" stroke-width="2" d="M269,-441.819C269,-434.198 269,-425.005 269,-416.32"/>
<polygon fill="grey" stroke="grey" stroke-width="2" points="272.5,-416.12 269,-406.12 265.5,-416.12 272.5,-416.12"/>
</g>
<!-- 20 -->
<g id="node21" class="node"><title>20</title>
<path fill="none" stroke="#d88d56" stroke-width="2" d="M463,-406C463,-406 389,-406 389,-406 383,-406 377,-400 377,-394 377,-394 377,-377 377,-377 377,-371 383,-365 389,-365 389,-365 463,-365 463,-365 469,-365 475,-371 475,-377 475,-377 475,-394 475,-394 475,-400 469,-406 463,-406"/>
<text text-anchor="middle" x="426" y="-394" font-family="sans" font-size="10.00">survivor_simsv</text>
<text text-anchor="middle" x="426" y="-383" font-family="sans" font-size="10.00">genotype: htz&#45;sv</text>
<text text-anchor="middle" x="426" y="-372" font-family="sans" font-size="10.00">svtype: INDEL</text>
</g>
<!-- 13&#45;&gt;20 -->
<g id="edge34" class="edge"><title>13&#45;&gt;20</title>
<path fill="none" stroke="grey" stroke-width="2" d="M306.207,-441.819C326.519,-432.439 351.987,-420.678 374.212,-410.415"/>
<polygon fill="grey" stroke="grey" stroke-width="2" points="375.902,-413.49 383.514,-406.12 372.967,-407.134 375.902,-413.49"/>
</g>
<!-- 14&#45;&gt;10 -->
<g id="edge17" class="edge"><title>14&#45;&gt;10</title>
<path fill="none" stroke="grey" stroke-width="2" d="M321.812,-292.654C348.344,-281.339 385.039,-265.689 413.504,-253.55"/>
<polygon fill="grey" stroke="grey" stroke-width="2" points="414.99,-256.721 422.815,-249.579 412.244,-250.282 414.99,-256.721"/>
</g>
<!-- 14&#45;&gt;11 -->
<g id="edge20" class="edge"><title>14&#45;&gt;11</title>
<path fill="none" stroke="grey" stroke-width="2" d="M252.326,-291.59C228.806,-280.797 197.535,-266.448 172.368,-254.9"/>
<polygon fill="grey" stroke="grey" stroke-width="2" points="173.598,-251.614 163.05,-250.624 170.679,-257.976 173.598,-251.614"/>
</g>
<!-- 14&#45;&gt;12 -->
<g id="edge23" class="edge"><title>14&#45;&gt;12</title>
<path fill="none" stroke="grey" stroke-width="2" d="M287,-290.319C287,-281.922 287,-271.616 287,-262.186"/>
<polygon fill="grey" stroke="grey" stroke-width="2" points="290.5,-262.058 287,-252.058 283.5,-262.058 290.5,-262.058"/>
</g>
<!-- 15 -->
<g id="node16" class="node"><title>15</title>
<path fill="none" stroke="#56d8a9" stroke-width="2" d="M567.5,-329C567.5,-329 502.5,-329 502.5,-329 496.5,-329 490.5,-323 490.5,-317 490.5,-317 490.5,-300 490.5,-300 490.5,-294 496.5,-288 502.5,-288 502.5,-288 567.5,-288 567.5,-288 573.5,-288 579.5,-294 579.5,-300 579.5,-300 579.5,-317 579.5,-317 579.5,-323 573.5,-329 567.5,-329"/>
<text text-anchor="middle" x="535" y="-317" font-family="sans" font-size="10.00">art_illumina</text>
<text text-anchor="middle" x="535" y="-306" font-family="sans" font-size="10.00">insert_len: 500</text>
<text text-anchor="middle" x="535" y="-295" font-family="sans" font-size="10.00">read_len: 150</text>
</g>
<!-- 15&#45;&gt;10 -->
<g id="edge18" class="edge"><title>15&#45;&gt;10</title>
<path fill="none" stroke="grey" stroke-width="2" d="M513.686,-287.689C504.125,-278.802 492.765,-268.243 482.734,-258.919"/>
<polygon fill="grey" stroke="grey" stroke-width="2" points="485.081,-256.323 475.374,-252.078 480.316,-261.45 485.081,-256.323"/>
</g>
<!-- 16 -->
<g id="node17" class="node"><title>16</title>
<path fill="none" stroke="#56d8a9" stroke-width="2" d="M222.5,-329C222.5,-329 157.5,-329 157.5,-329 151.5,-329 145.5,-323 145.5,-317 145.5,-317 145.5,-300 145.5,-300 145.5,-294 151.5,-288 157.5,-288 157.5,-288 222.5,-288 222.5,-288 228.5,-288 234.5,-294 234.5,-300 234.5,-300 234.5,-317 234.5,-317 234.5,-323 228.5,-329 222.5,-329"/>
<text text-anchor="middle" x="190" y="-317" font-family="sans" font-size="10.00">art_illumina</text>
<text text-anchor="middle" x="190" y="-306" font-family="sans" font-size="10.00">insert_len: 500</text>
<text text-anchor="middle" x="190" y="-295" font-family="sans" font-size="10.00">read_len: 150</text>
</g>
<!-- 16&#45;&gt;11 -->
<g id="edge21" class="edge"><title>16&#45;&gt;11</title>
<path fill="none" stroke="grey" stroke-width="2" d="M173.331,-287.689C166.201,-279.215 157.792,-269.22 150.224,-260.226"/>
<polygon fill="grey" stroke="grey" stroke-width="2" points="152.689,-257.718 143.572,-252.319 147.332,-262.225 152.689,-257.718"/>
</g>
<!-- 17 -->
<g id="node18" class="node"><title>17</title>
<path fill="none" stroke="#56d8a9" stroke-width="2" d="M456.5,-329C456.5,-329 391.5,-329 391.5,-329 385.5,-329 379.5,-323 379.5,-317 379.5,-317 379.5,-300 379.5,-300 379.5,-294 385.5,-288 391.5,-288 391.5,-288 456.5,-288 456.5,-288 462.5,-288 468.5,-294 468.5,-300 468.5,-300 468.5,-317 468.5,-317 468.5,-323 462.5,-329 456.5,-329"/>
<text text-anchor="middle" x="424" y="-317" font-family="sans" font-size="10.00">art_illumina</text>
<text text-anchor="middle" x="424" y="-306" font-family="sans" font-size="10.00">insert_len: 500</text>
<text text-anchor="middle" x="424" y="-295" font-family="sans" font-size="10.00">read_len: 150</text>
</g>
<!-- 17&#45;&gt;12 -->
<g id="edge24" class="edge"><title>17&#45;&gt;12</title>
<path fill="none" stroke="grey" stroke-width="2" d="M386.926,-287.88C368.811,-278.294 346.953,-266.727 328.305,-256.858"/>
<polygon fill="grey" stroke="grey" stroke-width="2" points="329.914,-253.75 319.439,-252.166 326.64,-259.937 329.914,-253.75"/>
</g>
<!-- 18&#45;&gt;15 -->
<g id="edge26" class="edge"><title>18&#45;&gt;15</title>
<path fill="none" stroke="grey" stroke-width="2" d="M537.949,-364.795C537.531,-356.957 537.041,-347.77 536.582,-339.16"/>
<polygon fill="grey" stroke="grey" stroke-width="2" points="540.072,-338.873 536.044,-329.074 533.082,-339.246 540.072,-338.873"/>
</g>
<!-- 19&#45;&gt;16 -->
<g id="edge27" class="edge"><title>19&#45;&gt;16</title>
<path fill="none" stroke="grey" stroke-width="2" d="M248.244,-364.795C238.991,-356.01 227.951,-345.529 217.984,-336.067"/>
<polygon fill="grey" stroke="grey" stroke-width="2" points="220.28,-333.421 210.618,-329.074 215.46,-338.497 220.28,-333.421"/>
</g>
<!-- 20&#45;&gt;17 -->
<g id="edge28" class="edge"><title>20&#45;&gt;17</title>
<path fill="none" stroke="grey" stroke-width="2" d="M425.475,-364.795C425.266,-356.957 425.021,-347.77 424.791,-339.16"/>
<polygon fill="grey" stroke="grey" stroke-width="2" points="428.287,-338.977 424.522,-329.074 421.29,-339.164 428.287,-338.977"/>
</g>
<!-- 21 -->
<g id="node22" class="node"><title>21</title>
<path fill="none" stroke="#d8cb56" stroke-width="2" d="M459.5,-478C459.5,-478 392.5,-478 392.5,-478 386.5,-478 380.5,-472 380.5,-466 380.5,-466 380.5,-454 380.5,-454 380.5,-448 386.5,-442 392.5,-442 392.5,-442 459.5,-442 459.5,-442 465.5,-442 471.5,-448 471.5,-454 471.5,-454 471.5,-466 471.5,-466 471.5,-472 465.5,-478 459.5,-478"/>
<text text-anchor="middle" x="426" y="-457.5" font-family="sans" font-size="10.00">survivor_config</text>
</g>
<!-- 21&#45;&gt;18 -->
<g id="edge29" class="edge"><title>21&#45;&gt;18</title>
<path fill="none" stroke="grey" stroke-width="2" d="M452.779,-441.819C466.877,-432.774 484.425,-421.515 500.003,-411.52"/>
<polygon fill="grey" stroke="grey" stroke-width="2" points="501.894,-414.465 508.421,-406.12 498.114,-408.574 501.894,-414.465"/>
</g>
<!-- 21&#45;&gt;19 -->
<g id="edge31" class="edge"><title>21&#45;&gt;19</title>
<path fill="none" stroke="grey" stroke-width="2" d="M388.793,-441.819C368.481,-432.439 343.013,-420.678 320.788,-410.415"/>
<polygon fill="grey" stroke="grey" stroke-width="2" points="322.033,-407.134 311.486,-406.12 319.098,-413.49 322.033,-407.134"/>
</g>
<!-- 21&#45;&gt;20 -->
<g id="edge33" class="edge"><title>21&#45;&gt;20</title>
<path fill="none" stroke="grey" stroke-width="2" d="M426,-441.819C426,-434.198 426,-425.005 426,-416.32"/>
<polygon fill="grey" stroke="grey" stroke-width="2" points="429.5,-416.12 426,-406.12 422.5,-416.12 429.5,-416.12"/>
</g>
</g>
</svg>
