<?xml version="1.0" encoding="UTF-8" standalone="no"?>
<!DOCTYPE svg PUBLIC "-//W3C//DTD SVG 1.1//EN"
 "http://www.w3.org/Graphics/SVG/1.1/DTD/svg11.dtd">
<!-- Generated by graphviz version 2.38.0 (20140413.2041)
 -->
<!-- Title: snakemake_dag Pages: 1 -->
<svg width="539pt" height="409pt"
 viewBox="0.00 0.00 538.50 409.00" xmlns="http://www.w3.org/2000/svg" xmlns:xlink="http://www.w3.org/1999/xlink">
<g id="graph0" class="graph" transform="scale(1 1) rotate(0) translate(4 405)">
<title>snakemake_dag</title>
<polygon fill="white" stroke="none" points="-4,4 -4,-405 534.5,-405 534.5,4 -4,4"/>
<!-- 0 -->
<g id="node1" class="node"><title>0</title>
<path fill="none" stroke="#d88d56" stroke-width="2" d="M242,-36C242,-36 212,-36 212,-36 206,-36 200,-30 200,-24 200,-24 200,-12 200,-12 200,-6 206,-0 212,-0 212,-0 242,-0 242,-0 248,-0 254,-6 254,-12 254,-12 254,-24 254,-24 254,-30 248,-36 242,-36"/>
<text text-anchor="middle" x="227" y="-15.5" font-family="sans" font-size="10.00">all</text>
</g>
<!-- 1 -->
<g id="node2" class="node"><title>1</title>
<path fill="none" stroke="#56d873" stroke-width="2" d="M370,-108C370,-108 304,-108 304,-108 298,-108 292,-102 292,-96 292,-96 292,-84 292,-84 292,-78 298,-72 304,-72 304,-72 370,-72 370,-72 376,-72 382,-78 382,-84 382,-84 382,-96 382,-96 382,-102 376,-108 370,-108"/>
<text text-anchor="middle" x="337" y="-93" font-family="sans" font-size="10.00">samtools_view</text>
<text text-anchor="middle" x="337" y="-82" font-family="sans" font-size="10.00">cov: 10</text>
</g>
<!-- 1&#45;&gt;0 -->
<g id="edge1" class="edge"><title>1&#45;&gt;0</title>
<path fill="none" stroke="grey" stroke-width="2" d="M310.091,-71.8761C295.842,-62.8083 278.154,-51.5523 262.764,-41.7592"/>
<polygon fill="grey" stroke="grey" stroke-width="2" points="264.328,-38.6057 254.012,-36.1898 260.57,-44.5114 264.328,-38.6057"/>
</g>
<!-- 2 -->
<g id="node3" class="node"><title>2</title>
<path fill="none" stroke="#56d873" stroke-width="2" d="M78,-108C78,-108 12,-108 12,-108 6,-108 0,-102 0,-96 0,-96 0,-84 0,-84 0,-78 6,-72 12,-72 12,-72 78,-72 78,-72 84,-72 90,-78 90,-84 90,-84 90,-96 90,-96 90,-102 84,-108 78,-108"/>
<text text-anchor="middle" x="45" y="-93" font-family="sans" font-size="10.00">samtools_view</text>
<text text-anchor="middle" x="45" y="-82" font-family="sans" font-size="10.00">cov: 10</text>
</g>
<!-- 2&#45;&gt;0 -->
<g id="edge2" class="edge"><title>2&#45;&gt;0</title>
<path fill="none" stroke="grey" stroke-width="2" d="M89.5222,-71.8761C120.534,-59.9485 161.39,-44.2347 190.485,-33.0444"/>
<polygon fill="grey" stroke="grey" stroke-width="2" points="191.792,-36.2914 199.87,-29.4348 189.28,-29.7579 191.792,-36.2914"/>
</g>
<!-- 3 -->
<g id="node4" class="node"><title>3</title>
<path fill="none" stroke="#56d873" stroke-width="2" d="M224,-108C224,-108 158,-108 158,-108 152,-108 146,-102 146,-96 146,-96 146,-84 146,-84 146,-78 152,-72 158,-72 158,-72 224,-72 224,-72 230,-72 236,-78 236,-84 236,-84 236,-96 236,-96 236,-102 230,-108 224,-108"/>
<text text-anchor="middle" x="191" y="-93" font-family="sans" font-size="10.00">samtools_view</text>
<text text-anchor="middle" x="191" y="-82" font-family="sans" font-size="10.00">cov: 10</text>
</g>
<!-- 3&#45;&gt;0 -->
<g id="edge3" class="edge"><title>3&#45;&gt;0</title>
<path fill="none" stroke="grey" stroke-width="2" d="M199.899,-71.6966C203.997,-63.7284 208.949,-54.0995 213.493,-45.2641"/>
<polygon fill="grey" stroke="grey" stroke-width="2" points="216.742,-46.598 218.203,-36.1043 210.517,-43.3965 216.742,-46.598"/>
</g>
<!-- 4 -->
<g id="node5" class="node"><title>4</title>
<path fill="none" stroke="#56d8a9" stroke-width="2" d="M359,-180C359,-180 315,-180 315,-180 309,-180 303,-174 303,-168 303,-168 303,-156 303,-156 303,-150 309,-144 315,-144 315,-144 359,-144 359,-144 365,-144 371,-150 371,-156 371,-156 371,-168 371,-168 371,-174 365,-180 359,-180"/>
<text text-anchor="middle" x="337" y="-159.5" font-family="sans" font-size="10.00">bwa_mem</text>
</g>
<!-- 4&#45;&gt;0 -->
<g id="edge4" class="edge"><title>4&#45;&gt;0</title>
<path fill="none" stroke="grey" stroke-width="2" d="M360.065,-143.728C381.702,-125.388 408.334,-95.8192 391,-72 362.192,-32.4152 303.216,-21.7802 264.403,-19.2596"/>
<polygon fill="grey" stroke="grey" stroke-width="2" points="264.193,-15.745 254.032,-18.7465 263.847,-22.7364 264.193,-15.745"/>
</g>
<!-- 4&#45;&gt;1 -->
<g id="edge7" class="edge"><title>4&#45;&gt;1</title>
<path fill="none" stroke="grey" stroke-width="2" d="M337,-143.697C337,-135.983 337,-126.712 337,-118.112"/>
<polygon fill="grey" stroke="grey" stroke-width="2" points="340.5,-118.104 337,-108.104 333.5,-118.104 340.5,-118.104"/>
</g>
<!-- 5 -->
<g id="node6" class="node"><title>5</title>
<path fill="none" stroke="#56d8a9" stroke-width="2" d="M140,-180C140,-180 96,-180 96,-180 90,-180 84,-174 84,-168 84,-168 84,-156 84,-156 84,-150 90,-144 96,-144 96,-144 140,-144 140,-144 146,-144 152,-150 152,-156 152,-156 152,-168 152,-168 152,-174 146,-180 140,-180"/>
<text text-anchor="middle" x="118" y="-159.5" font-family="sans" font-size="10.00">bwa_mem</text>
</g>
<!-- 5&#45;&gt;0 -->
<g id="edge5" class="edge"><title>5&#45;&gt;0</title>
<path fill="none" stroke="grey" stroke-width="2" d="M117.699,-143.97C118.188,-124.758 121.574,-93.4059 137,-72 150.151,-53.7521 171.687,-40.7445 190.396,-32.1832"/>
<polygon fill="grey" stroke="grey" stroke-width="2" points="191.786,-35.3954 199.582,-28.2209 189.014,-28.9678 191.786,-35.3954"/>
</g>
<!-- 5&#45;&gt;2 -->
<g id="edge8" class="edge"><title>5&#45;&gt;2</title>
<path fill="none" stroke="grey" stroke-width="2" d="M99.9551,-143.697C90.9381,-135.05 79.8821,-124.449 70.0568,-115.027"/>
<polygon fill="grey" stroke="grey" stroke-width="2" points="72.4777,-112.499 62.8374,-108.104 67.6328,-117.552 72.4777,-112.499"/>
</g>
<!-- 6 -->
<g id="node7" class="node"><title>6</title>
<path fill="none" stroke="#56d8a9" stroke-width="2" d="M255,-180C255,-180 211,-180 211,-180 205,-180 199,-174 199,-168 199,-168 199,-156 199,-156 199,-150 205,-144 211,-144 211,-144 255,-144 255,-144 261,-144 267,-150 267,-156 267,-156 267,-168 267,-168 267,-174 261,-180 255,-180"/>
<text text-anchor="middle" x="233" y="-159.5" font-family="sans" font-size="10.00">bwa_mem</text>
</g>
<!-- 6&#45;&gt;0 -->
<g id="edge6" class="edge"><title>6&#45;&gt;0</title>
<path fill="none" stroke="grey" stroke-width="2" d="M238.331,-143.893C243.217,-125.941 249.116,-96.9201 245,-72 243.559,-63.2752 240.868,-54.0563 237.998,-45.7969"/>
<polygon fill="grey" stroke="grey" stroke-width="2" points="241.234,-44.4583 234.48,-36.2958 234.67,-46.889 241.234,-44.4583"/>
</g>
<!-- 6&#45;&gt;3 -->
<g id="edge9" class="edge"><title>6&#45;&gt;3</title>
<path fill="none" stroke="grey" stroke-width="2" d="M222.618,-143.697C217.735,-135.559 211.813,-125.689 206.421,-116.701"/>
<polygon fill="grey" stroke="grey" stroke-width="2" points="209.409,-114.879 201.263,-108.104 203.406,-118.48 209.409,-114.879"/>
</g>
<!-- 7 -->
<g id="node8" class="node"><title>7</title>
<path fill="none" stroke="#d85656" stroke-width="2" d="M249,-401C249,-401 181,-401 181,-401 175,-401 169,-395 169,-389 169,-389 169,-377 169,-377 169,-371 175,-365 181,-365 181,-365 249,-365 249,-365 255,-365 261,-371 261,-377 261,-377 261,-389 261,-389 261,-395 255,-401 249,-401"/>
<text text-anchor="middle" x="215" y="-380.5" font-family="sans" font-size="10.00">samtools_faidx</text>
</g>
<!-- 7&#45;&gt;4 -->
<g id="edge10" class="edge"><title>7&#45;&gt;4</title>
<path fill="none" stroke="grey" stroke-width="2" d="M240.333,-364.801C252.529,-355.43 266.524,-342.915 276,-329 305.987,-284.965 297.295,-265.884 316,-216 319.247,-207.341 322.921,-197.942 326.278,-189.497"/>
<polygon fill="grey" stroke="grey" stroke-width="2" points="329.564,-190.708 330.029,-180.123 323.064,-188.108 329.564,-190.708"/>
</g>
<!-- 7&#45;&gt;5 -->
<g id="edge13" class="edge"><title>7&#45;&gt;5</title>
<path fill="none" stroke="grey" stroke-width="2" d="M168.762,-372.763C142.277,-365.209 110.361,-351.9 90,-329 56.0575,-290.826 50.3803,-263.568 69,-216 73.1966,-205.279 80.6922,-195.427 88.5783,-187.201"/>
<polygon fill="grey" stroke="grey" stroke-width="2" points="91.1227,-189.608 95.847,-180.125 86.24,-184.592 91.1227,-189.608"/>
</g>
<!-- 7&#45;&gt;6 -->
<g id="edge16" class="edge"><title>7&#45;&gt;6</title>
<path fill="none" stroke="grey" stroke-width="2" d="M182.928,-364.838C131.919,-335.28 41.9593,-272.49 82,-216 88.4888,-206.846 146.92,-188.139 189.153,-175.582"/>
<polygon fill="grey" stroke="grey" stroke-width="2" points="190.362,-178.874 198.963,-172.688 188.381,-172.16 190.362,-178.874"/>
</g>
<!-- 8 -->
<g id="node9" class="node"><title>8</title>
<path fill="none" stroke="#5692d8" stroke-width="2" d="M255.5,-254.5C255.5,-254.5 210.5,-254.5 210.5,-254.5 204.5,-254.5 198.5,-248.5 198.5,-242.5 198.5,-242.5 198.5,-230.5 198.5,-230.5 198.5,-224.5 204.5,-218.5 210.5,-218.5 210.5,-218.5 255.5,-218.5 255.5,-218.5 261.5,-218.5 267.5,-224.5 267.5,-230.5 267.5,-230.5 267.5,-242.5 267.5,-242.5 267.5,-248.5 261.5,-254.5 255.5,-254.5"/>
<text text-anchor="middle" x="233" y="-234" font-family="sans" font-size="10.00">bwa_index</text>
</g>
<!-- 7&#45;&gt;8 -->
<g id="edge19" class="edge"><title>7&#45;&gt;8</title>
<path fill="none" stroke="grey" stroke-width="2" d="M185.96,-364.837C173.682,-355.866 160.692,-343.68 154,-329 147.363,-314.441 146.623,-307.198 154,-293 161.808,-277.973 175.757,-266.163 189.784,-257.371"/>
<polygon fill="grey" stroke="grey" stroke-width="2" points="191.612,-260.356 198.474,-252.285 188.076,-254.315 191.612,-260.356"/>
</g>
<!-- 12 -->
<g id="node13" class="node"><title>12</title>
<path fill="none" stroke="#afd856" stroke-width="2" d="M518.5,-329C518.5,-329 451.5,-329 451.5,-329 445.5,-329 439.5,-323 439.5,-317 439.5,-317 439.5,-305 439.5,-305 439.5,-299 445.5,-293 451.5,-293 451.5,-293 518.5,-293 518.5,-293 524.5,-293 530.5,-299 530.5,-305 530.5,-305 530.5,-317 530.5,-317 530.5,-323 524.5,-329 518.5,-329"/>
<text text-anchor="middle" x="485" y="-314" font-family="sans" font-size="10.00">survivor_simsv</text>
<text text-anchor="middle" x="485" y="-303" font-family="sans" font-size="10.00">genotype: hmz</text>
</g>
<!-- 7&#45;&gt;12 -->
<g id="edge24" class="edge"><title>7&#45;&gt;12</title>
<path fill="none" stroke="grey" stroke-width="2" d="M261.336,-371.399C302.883,-361.709 365.706,-346.604 429.596,-329.03"/>
<polygon fill="grey" stroke="grey" stroke-width="2" points="430.738,-332.346 439.442,-326.305 428.87,-325.6 430.738,-332.346"/>
</g>
<!-- 13 -->
<g id="node14" class="node"><title>13</title>
<path fill="none" stroke="#afd856" stroke-width="2" d="M255,-329C255,-329 175,-329 175,-329 169,-329 163,-323 163,-317 163,-317 163,-305 163,-305 163,-299 169,-293 175,-293 175,-293 255,-293 255,-293 261,-293 267,-299 267,-305 267,-305 267,-317 267,-317 267,-323 261,-329 255,-329"/>
<text text-anchor="middle" x="215" y="-314" font-family="sans" font-size="10.00">survivor_simsv</text>
<text text-anchor="middle" x="215" y="-303" font-family="sans" font-size="10.00">genotype: hmz&#45;sv</text>
</g>
<!-- 7&#45;&gt;13 -->
<g id="edge26" class="edge"><title>7&#45;&gt;13</title>
<path fill="none" stroke="grey" stroke-width="2" d="M215,-364.697C215,-356.983 215,-347.712 215,-339.112"/>
<polygon fill="grey" stroke="grey" stroke-width="2" points="218.5,-339.104 215,-329.104 211.5,-339.104 218.5,-339.104"/>
</g>
<!-- 14 -->
<g id="node15" class="node"><title>14</title>
<path fill="none" stroke="#afd856" stroke-width="2" d="M409,-329C409,-329 335,-329 335,-329 329,-329 323,-323 323,-317 323,-317 323,-305 323,-305 323,-299 329,-293 335,-293 335,-293 409,-293 409,-293 415,-293 421,-299 421,-305 421,-305 421,-317 421,-317 421,-323 415,-329 409,-329"/>
<text text-anchor="middle" x="372" y="-314" font-family="sans" font-size="10.00">survivor_simsv</text>
<text text-anchor="middle" x="372" y="-303" font-family="sans" font-size="10.00">genotype: htz&#45;sv</text>
</g>
<!-- 7&#45;&gt;14 -->
<g id="edge28" class="edge"><title>7&#45;&gt;14</title>
<path fill="none" stroke="grey" stroke-width="2" d="M253.407,-364.876C274.869,-355.307 301.798,-343.3 324.568,-333.148"/>
<polygon fill="grey" stroke="grey" stroke-width="2" points="326.01,-336.337 333.718,-329.068 323.16,-329.944 326.01,-336.337"/>
</g>
<!-- 8&#45;&gt;4 -->
<g id="edge11" class="edge"><title>8&#45;&gt;4</title>
<path fill="none" stroke="grey" stroke-width="2" d="M257.647,-218.319C271.505,-208.658 288.987,-196.47 304.013,-185.996"/>
<polygon fill="grey" stroke="grey" stroke-width="2" points="306.328,-188.648 312.53,-180.058 302.325,-182.906 306.328,-188.648"/>
</g>
<!-- 8&#45;&gt;5 -->
<g id="edge14" class="edge"><title>8&#45;&gt;5</title>
<path fill="none" stroke="grey" stroke-width="2" d="M205.747,-218.319C190.136,-208.477 170.367,-196.014 153.547,-185.41"/>
<polygon fill="grey" stroke="grey" stroke-width="2" points="155.384,-182.43 145.058,-180.058 151.65,-188.352 155.384,-182.43"/>
</g>
<!-- 8&#45;&gt;6 -->
<g id="edge17" class="edge"><title>8&#45;&gt;6</title>
<path fill="none" stroke="grey" stroke-width="2" d="M233,-218.319C233,-209.922 233,-199.616 233,-190.186"/>
<polygon fill="grey" stroke="grey" stroke-width="2" points="236.5,-190.058 233,-180.058 229.5,-190.058 236.5,-190.058"/>
</g>
<!-- 9 -->
<g id="node10" class="node"><title>9</title>
<path fill="none" stroke="#56c9d8" stroke-width="2" d="M513.5,-257C513.5,-257 448.5,-257 448.5,-257 442.5,-257 436.5,-251 436.5,-245 436.5,-245 436.5,-228 436.5,-228 436.5,-222 442.5,-216 448.5,-216 448.5,-216 513.5,-216 513.5,-216 519.5,-216 525.5,-222 525.5,-228 525.5,-228 525.5,-245 525.5,-245 525.5,-251 519.5,-257 513.5,-257"/>
<text text-anchor="middle" x="481" y="-245" font-family="sans" font-size="10.00">art_illumina</text>
<text text-anchor="middle" x="481" y="-234" font-family="sans" font-size="10.00">insert_len: 500</text>
<text text-anchor="middle" x="481" y="-223" font-family="sans" font-size="10.00">read_len: 150</text>
</g>
<!-- 9&#45;&gt;4 -->
<g id="edge12" class="edge"><title>9&#45;&gt;4</title>
<path fill="none" stroke="grey" stroke-width="2" d="M442.032,-215.88C422.905,-206.251 399.807,-194.622 380.148,-184.724"/>
<polygon fill="grey" stroke="grey" stroke-width="2" points="381.602,-181.537 371.096,-180.166 378.454,-187.79 381.602,-181.537"/>
</g>
<!-- 10 -->
<g id="node11" class="node"><title>10</title>
<path fill="none" stroke="#56c9d8" stroke-width="2" d="M168.5,-257C168.5,-257 103.5,-257 103.5,-257 97.5,-257 91.5,-251 91.5,-245 91.5,-245 91.5,-228 91.5,-228 91.5,-222 97.5,-216 103.5,-216 103.5,-216 168.5,-216 168.5,-216 174.5,-216 180.5,-222 180.5,-228 180.5,-228 180.5,-245 180.5,-245 180.5,-251 174.5,-257 168.5,-257"/>
<text text-anchor="middle" x="136" y="-245" font-family="sans" font-size="10.00">art_illumina</text>
<text text-anchor="middle" x="136" y="-234" font-family="sans" font-size="10.00">insert_len: 500</text>
<text text-anchor="middle" x="136" y="-223" font-family="sans" font-size="10.00">read_len: 150</text>
</g>
<!-- 10&#45;&gt;5 -->
<g id="edge15" class="edge"><title>10&#45;&gt;5</title>
<path fill="none" stroke="grey" stroke-width="2" d="M131.081,-215.689C129.128,-207.82 126.849,-198.64 124.745,-190.168"/>
<polygon fill="grey" stroke="grey" stroke-width="2" points="128.107,-189.181 122.3,-180.319 121.313,-190.868 128.107,-189.181"/>
</g>
<!-- 11 -->
<g id="node12" class="node"><title>11</title>
<path fill="none" stroke="#56c9d8" stroke-width="2" d="M402.5,-257C402.5,-257 337.5,-257 337.5,-257 331.5,-257 325.5,-251 325.5,-245 325.5,-245 325.5,-228 325.5,-228 325.5,-222 331.5,-216 337.5,-216 337.5,-216 402.5,-216 402.5,-216 408.5,-216 414.5,-222 414.5,-228 414.5,-228 414.5,-245 414.5,-245 414.5,-251 408.5,-257 402.5,-257"/>
<text text-anchor="middle" x="370" y="-245" font-family="sans" font-size="10.00">art_illumina</text>
<text text-anchor="middle" x="370" y="-234" font-family="sans" font-size="10.00">insert_len: 500</text>
<text text-anchor="middle" x="370" y="-223" font-family="sans" font-size="10.00">read_len: 150</text>
</g>
<!-- 11&#45;&gt;6 -->
<g id="edge18" class="edge"><title>11&#45;&gt;6</title>
<path fill="none" stroke="grey" stroke-width="2" d="M332.926,-215.88C314.811,-206.294 292.953,-194.727 274.305,-184.858"/>
<polygon fill="grey" stroke="grey" stroke-width="2" points="275.914,-181.75 265.439,-180.166 272.64,-187.937 275.914,-181.75"/>
</g>
<!-- 12&#45;&gt;9 -->
<g id="edge20" class="edge"><title>12&#45;&gt;9</title>
<path fill="none" stroke="grey" stroke-width="2" d="M484.052,-292.819C483.632,-285.198 483.124,-276.005 482.645,-267.32"/>
<polygon fill="grey" stroke="grey" stroke-width="2" points="486.128,-266.912 482.082,-257.12 479.139,-267.297 486.128,-266.912"/>
</g>
<!-- 13&#45;&gt;10 -->
<g id="edge21" class="edge"><title>13&#45;&gt;10</title>
<path fill="none" stroke="grey" stroke-width="2" d="M196.278,-292.819C186.879,-284.193 175.285,-273.553 164.784,-263.916"/>
<polygon fill="grey" stroke="grey" stroke-width="2" points="167.113,-261.302 157.379,-257.12 162.38,-266.46 167.113,-261.302"/>
</g>
<!-- 14&#45;&gt;11 -->
<g id="edge22" class="edge"><title>14&#45;&gt;11</title>
<path fill="none" stroke="grey" stroke-width="2" d="M371.526,-292.819C371.316,-285.198 371.062,-276.005 370.823,-267.32"/>
<polygon fill="grey" stroke="grey" stroke-width="2" points="374.316,-267.019 370.541,-257.12 367.318,-267.212 374.316,-267.019"/>
</g>
<!-- 15 -->
<g id="node16" class="node"><title>15</title>
<path fill="none" stroke="#70d856" stroke-width="2" d="M405.5,-401C405.5,-401 338.5,-401 338.5,-401 332.5,-401 326.5,-395 326.5,-389 326.5,-389 326.5,-377 326.5,-377 326.5,-371 332.5,-365 338.5,-365 338.5,-365 405.5,-365 405.5,-365 411.5,-365 417.5,-371 417.5,-377 417.5,-377 417.5,-389 417.5,-389 417.5,-395 411.5,-401 405.5,-401"/>
<text text-anchor="middle" x="372" y="-380.5" font-family="sans" font-size="10.00">survivor_config</text>
</g>
<!-- 15&#45;&gt;12 -->
<g id="edge23" class="edge"><title>15&#45;&gt;12</title>
<path fill="none" stroke="grey" stroke-width="2" d="M399.643,-364.876C414.418,-355.724 432.791,-344.342 448.703,-334.485"/>
<polygon fill="grey" stroke="grey" stroke-width="2" points="450.593,-337.431 457.251,-329.19 446.907,-331.481 450.593,-337.431"/>
</g>
<!-- 15&#45;&gt;13 -->
<g id="edge25" class="edge"><title>15&#45;&gt;13</title>
<path fill="none" stroke="grey" stroke-width="2" d="M333.593,-364.876C312.131,-355.307 285.202,-343.3 262.432,-333.148"/>
<polygon fill="grey" stroke="grey" stroke-width="2" points="263.84,-329.944 253.282,-329.068 260.99,-336.337 263.84,-329.944"/>
</g>
<!-- 15&#45;&gt;14 -->
<g id="edge27" class="edge"><title>15&#45;&gt;14</title>
<path fill="none" stroke="grey" stroke-width="2" d="M372,-364.697C372,-356.983 372,-347.712 372,-339.112"/>
<polygon fill="grey" stroke="grey" stroke-width="2" points="375.5,-339.104 372,-329.104 368.5,-339.104 375.5,-339.104"/>
</g>
</g>
</svg>
