<?xml version="1.0" encoding="UTF-8" standalone="no"?>
<!DOCTYPE svg PUBLIC "-//W3C//DTD SVG 1.1//EN"
 "http://www.w3.org/Graphics/SVG/1.1/DTD/svg11.dtd">
<!-- Generated by graphviz version 2.40.1 (20161225.0304)
 -->
<!-- Title: snakemake_dag Pages: 1 -->
<svg width="593pt" height="492pt"
 viewBox="0.00 0.00 592.50 492.00" xmlns="http://www.w3.org/2000/svg" xmlns:xlink="http://www.w3.org/1999/xlink">
<g id="graph0" class="graph" transform="scale(1 1) rotate(0) translate(4 488)">
<title>snakemake_dag</title>
<polygon fill="#ffffff" stroke="transparent" points="-4,4 -4,-488 588.5,-488 588.5,4 -4,4"/>
<!-- 0 -->
<g id="node1" class="node">
<title>0</title>
<path fill="none" stroke="#d8cb56" stroke-width="2" d="M323,-36C323,-36 293,-36 293,-36 287,-36 281,-30 281,-24 281,-24 281,-12 281,-12 281,-6 287,0 293,0 293,0 323,0 323,0 329,0 335,-6 335,-12 335,-12 335,-24 335,-24 335,-30 329,-36 323,-36"/>
<text text-anchor="middle" x="308" y="-15.5" font-family="sans" font-size="10.00" fill="#000000">all</text>
</g>
<!-- 1 -->
<g id="node2" class="node">
<title>1</title>
<path fill="none" stroke="#56d8a9" stroke-width="2" d="M456,-108C456,-108 386,-108 386,-108 380,-108 374,-102 374,-96 374,-96 374,-84 374,-84 374,-78 380,-72 386,-72 386,-72 456,-72 456,-72 462,-72 468,-78 468,-84 468,-84 468,-96 468,-96 468,-102 462,-108 456,-108"/>
<text text-anchor="middle" x="421" y="-87.5" font-family="sans" font-size="10.00" fill="#000000">samtools_index</text>
</g>
<!-- 1&#45;&gt;0 -->
<g id="edge1" class="edge">
<title>1&#45;&gt;0</title>
<path fill="none" stroke="#c0c0c0" stroke-width="2" d="M392.4853,-71.8314C377.7009,-62.4112 359.4963,-50.8118 343.7763,-40.7955"/>
<polygon fill="#c0c0c0" stroke="#c0c0c0" stroke-width="2" points="345.6505,-37.8396 335.3361,-35.4177 341.8889,-43.7431 345.6505,-37.8396"/>
</g>
<!-- 2 -->
<g id="node3" class="node">
<title>2</title>
<path fill="none" stroke="#56d8a9" stroke-width="2" d="M194,-108C194,-108 124,-108 124,-108 118,-108 112,-102 112,-96 112,-96 112,-84 112,-84 112,-78 118,-72 124,-72 124,-72 194,-72 194,-72 200,-72 206,-78 206,-84 206,-84 206,-96 206,-96 206,-102 200,-108 194,-108"/>
<text text-anchor="middle" x="159" y="-87.5" font-family="sans" font-size="10.00" fill="#000000">samtools_index</text>
</g>
<!-- 2&#45;&gt;0 -->
<g id="edge2" class="edge">
<title>2&#45;&gt;0</title>
<path fill="none" stroke="#c0c0c0" stroke-width="2" d="M196.599,-71.8314C219.6335,-60.7006 248.9645,-46.5272 271.7474,-35.5181"/>
<polygon fill="#c0c0c0" stroke="#c0c0c0" stroke-width="2" points="273.2767,-38.6663 280.7578,-31.164 270.2311,-32.3636 273.2767,-38.6663"/>
</g>
<!-- 3 -->
<g id="node4" class="node">
<title>3</title>
<path fill="none" stroke="#56d8a9" stroke-width="2" d="M306,-108C306,-108 236,-108 236,-108 230,-108 224,-102 224,-96 224,-96 224,-84 224,-84 224,-78 230,-72 236,-72 236,-72 306,-72 306,-72 312,-72 318,-78 318,-84 318,-84 318,-96 318,-96 318,-102 312,-108 306,-108"/>
<text text-anchor="middle" x="271" y="-87.5" font-family="sans" font-size="10.00" fill="#000000">samtools_index</text>
</g>
<!-- 3&#45;&gt;0 -->
<g id="edge3" class="edge">
<title>3&#45;&gt;0</title>
<path fill="none" stroke="#c0c0c0" stroke-width="2" d="M280.3367,-71.8314C284.4243,-63.8771 289.3104,-54.369 293.8309,-45.5723"/>
<polygon fill="#c0c0c0" stroke="#c0c0c0" stroke-width="2" points="297.0799,-46.9074 298.5376,-36.4133 290.8539,-43.7078 297.0799,-46.9074"/>
</g>
<!-- 4 -->
<g id="node5" class="node">
<title>4</title>
<path fill="none" stroke="#56d8a9" stroke-width="2" d="M568,-108C568,-108 498,-108 498,-108 492,-108 486,-102 486,-96 486,-96 486,-84 486,-84 486,-78 492,-72 498,-72 498,-72 568,-72 568,-72 574,-72 580,-78 580,-84 580,-84 580,-96 580,-96 580,-102 574,-108 568,-108"/>
<text text-anchor="middle" x="533" y="-93" font-family="sans" font-size="10.00" fill="#000000">samtools_index</text>
<text text-anchor="middle" x="533" y="-82" font-family="sans" font-size="10.00" fill="#000000">cov: 30</text>
</g>
<!-- 4&#45;&gt;0 -->
<g id="edge4" class="edge">
<title>4&#45;&gt;0</title>
<path fill="none" stroke="#c0c0c0" stroke-width="2" d="M485.9482,-74.8697C482.9202,-73.898 479.9175,-72.935 477,-72 431.4818,-57.4125 379.0485,-40.6678 344.8094,-29.7415"/>
<polygon fill="#c0c0c0" stroke="#c0c0c0" stroke-width="2" points="345.8167,-26.3891 335.2259,-26.6835 343.6887,-33.0578 345.8167,-26.3891"/>
</g>
<!-- 5 -->
<g id="node6" class="node">
<title>5</title>
<path fill="none" stroke="#56d8a9" stroke-width="2" d="M82,-108C82,-108 12,-108 12,-108 6,-108 0,-102 0,-96 0,-96 0,-84 0,-84 0,-78 6,-72 12,-72 12,-72 82,-72 82,-72 88,-72 94,-78 94,-84 94,-84 94,-96 94,-96 94,-102 88,-108 82,-108"/>
<text text-anchor="middle" x="47" y="-93" font-family="sans" font-size="10.00" fill="#000000">samtools_index</text>
<text text-anchor="middle" x="47" y="-82" font-family="sans" font-size="10.00" fill="#000000">cov: 30</text>
</g>
<!-- 5&#45;&gt;0 -->
<g id="edge5" class="edge">
<title>5&#45;&gt;0</title>
<path fill="none" stroke="#c0c0c0" stroke-width="2" d="M94.3017,-74.5999C97.2401,-73.704 100.1574,-72.8306 103,-72 161.2953,-54.9664 229.6145,-37.4553 270.8134,-27.1597"/>
<polygon fill="#c0c0c0" stroke="#c0c0c0" stroke-width="2" points="271.8229,-30.5153 280.6807,-24.7024 270.1312,-23.7228 271.8229,-30.5153"/>
</g>
<!-- 6 -->
<g id="node7" class="node">
<title>6</title>
<path fill="none" stroke="#56d8a9" stroke-width="2" d="M382,-180C382,-180 312,-180 312,-180 306,-180 300,-174 300,-168 300,-168 300,-156 300,-156 300,-150 306,-144 312,-144 312,-144 382,-144 382,-144 388,-144 394,-150 394,-156 394,-156 394,-168 394,-168 394,-174 388,-180 382,-180"/>
<text text-anchor="middle" x="347" y="-165" font-family="sans" font-size="10.00" fill="#000000">samtools_index</text>
<text text-anchor="middle" x="347" y="-154" font-family="sans" font-size="10.00" fill="#000000">cov: 30</text>
</g>
<!-- 6&#45;&gt;0 -->
<g id="edge6" class="edge">
<title>6&#45;&gt;0</title>
<path fill="none" stroke="#c0c0c0" stroke-width="2" d="M343.642,-143.9113C340.0928,-125.6236 334.0404,-96.6231 327,-72 324.5526,-63.4404 321.4916,-54.2593 318.546,-45.9397"/>
<polygon fill="#c0c0c0" stroke="#c0c0c0" stroke-width="2" points="321.7572,-44.5277 315.0594,-36.3185 315.176,-46.9127 321.7572,-44.5277"/>
</g>
<!-- 7 -->
<g id="node8" class="node">
<title>7</title>
<path fill="none" stroke="#56d873" stroke-width="2" d="M490,-180C490,-180 424,-180 424,-180 418,-180 412,-174 412,-168 412,-168 412,-156 412,-156 412,-150 418,-144 424,-144 424,-144 490,-144 490,-144 496,-144 502,-150 502,-156 502,-156 502,-168 502,-168 502,-174 496,-180 490,-180"/>
<text text-anchor="middle" x="457" y="-165" font-family="sans" font-size="10.00" fill="#000000">samtools_view</text>
<text text-anchor="middle" x="457" y="-154" font-family="sans" font-size="10.00" fill="#000000">cov: 10</text>
</g>
<!-- 7&#45;&gt;1 -->
<g id="edge7" class="edge">
<title>7&#45;&gt;1</title>
<path fill="none" stroke="#c0c0c0" stroke-width="2" d="M447.9157,-143.8314C443.9385,-135.8771 439.1845,-126.369 434.7861,-117.5723"/>
<polygon fill="#c0c0c0" stroke="#c0c0c0" stroke-width="2" points="437.8093,-115.7923 430.2066,-108.4133 431.5483,-118.9228 437.8093,-115.7923"/>
</g>
<!-- 8 -->
<g id="node9" class="node">
<title>8</title>
<path fill="none" stroke="#56d873" stroke-width="2" d="M162,-180C162,-180 96,-180 96,-180 90,-180 84,-174 84,-168 84,-168 84,-156 84,-156 84,-150 90,-144 96,-144 96,-144 162,-144 162,-144 168,-144 174,-150 174,-156 174,-156 174,-168 174,-168 174,-174 168,-180 162,-180"/>
<text text-anchor="middle" x="129" y="-165" font-family="sans" font-size="10.00" fill="#000000">samtools_view</text>
<text text-anchor="middle" x="129" y="-154" font-family="sans" font-size="10.00" fill="#000000">cov: 10</text>
</g>
<!-- 8&#45;&gt;2 -->
<g id="edge8" class="edge">
<title>8&#45;&gt;2</title>
<path fill="none" stroke="#c0c0c0" stroke-width="2" d="M136.5703,-143.8314C139.8493,-135.9617 143.762,-126.5712 147.3945,-117.8533"/>
<polygon fill="#c0c0c0" stroke="#c0c0c0" stroke-width="2" points="150.7124,-118.9902 151.3278,-108.4133 144.2508,-116.2979 150.7124,-118.9902"/>
</g>
<!-- 9 -->
<g id="node10" class="node">
<title>9</title>
<path fill="none" stroke="#56d873" stroke-width="2" d="M270,-180C270,-180 204,-180 204,-180 198,-180 192,-174 192,-168 192,-168 192,-156 192,-156 192,-150 198,-144 204,-144 204,-144 270,-144 270,-144 276,-144 282,-150 282,-156 282,-156 282,-168 282,-168 282,-174 276,-180 270,-180"/>
<text text-anchor="middle" x="237" y="-165" font-family="sans" font-size="10.00" fill="#000000">samtools_view</text>
<text text-anchor="middle" x="237" y="-154" font-family="sans" font-size="10.00" fill="#000000">cov: 10</text>
</g>
<!-- 9&#45;&gt;3 -->
<g id="edge9" class="edge">
<title>9&#45;&gt;3</title>
<path fill="none" stroke="#c0c0c0" stroke-width="2" d="M245.5796,-143.8314C249.3358,-135.8771 253.8257,-126.369 257.9798,-117.5723"/>
<polygon fill="#c0c0c0" stroke="#c0c0c0" stroke-width="2" points="261.1996,-118.9503 262.3048,-108.4133 254.8699,-115.9612 261.1996,-118.9503"/>
</g>
<!-- 10 -->
<g id="node11" class="node">
<title>10</title>
<path fill="none" stroke="#d85656" stroke-width="2" d="M479,-252C479,-252 435,-252 435,-252 429,-252 423,-246 423,-240 423,-240 423,-228 423,-228 423,-222 429,-216 435,-216 435,-216 479,-216 479,-216 485,-216 491,-222 491,-228 491,-228 491,-240 491,-240 491,-246 485,-252 479,-252"/>
<text text-anchor="middle" x="457" y="-231.5" font-family="sans" font-size="10.00" fill="#000000">bwa_mem</text>
</g>
<!-- 10&#45;&gt;4 -->
<g id="edge10" class="edge">
<title>10&#45;&gt;4</title>
<path fill="none" stroke="#c0c0c0" stroke-width="2" d="M480.1951,-215.9705C491.0502,-206.3848 503.2625,-193.7497 511,-180 521.6826,-161.0167 527.2195,-136.9325 530.0654,-118.4562"/>
<polygon fill="#c0c0c0" stroke="#c0c0c0" stroke-width="2" points="533.5662,-118.6877 531.4487,-108.3067 526.6303,-117.7424 533.5662,-118.6877"/>
</g>
<!-- 10&#45;&gt;7 -->
<g id="edge13" class="edge">
<title>10&#45;&gt;7</title>
<path fill="none" stroke="#c0c0c0" stroke-width="2" d="M457,-215.8314C457,-208.131 457,-198.9743 457,-190.4166"/>
<polygon fill="#c0c0c0" stroke="#c0c0c0" stroke-width="2" points="460.5001,-190.4132 457,-180.4133 453.5001,-190.4133 460.5001,-190.4132"/>
</g>
<!-- 11 -->
<g id="node12" class="node">
<title>11</title>
<path fill="none" stroke="#d85656" stroke-width="2" d="M151,-252C151,-252 107,-252 107,-252 101,-252 95,-246 95,-240 95,-240 95,-228 95,-228 95,-222 101,-216 107,-216 107,-216 151,-216 151,-216 157,-216 163,-222 163,-228 163,-228 163,-240 163,-240 163,-246 157,-252 151,-252"/>
<text text-anchor="middle" x="129" y="-231.5" font-family="sans" font-size="10.00" fill="#000000">bwa_mem</text>
</g>
<!-- 11&#45;&gt;5 -->
<g id="edge11" class="edge">
<title>11&#45;&gt;5</title>
<path fill="none" stroke="#c0c0c0" stroke-width="2" d="M106.1672,-215.7592C95.4011,-206.1216 83.1591,-193.5038 75,-180 63.4866,-160.9446 56.3024,-136.7229 52.0978,-118.2085"/>
<polygon fill="#c0c0c0" stroke="#c0c0c0" stroke-width="2" points="55.4991,-117.3755 50.008,-108.3147 48.6502,-118.8221 55.4991,-117.3755"/>
</g>
<!-- 11&#45;&gt;8 -->
<g id="edge14" class="edge">
<title>11&#45;&gt;8</title>
<path fill="none" stroke="#c0c0c0" stroke-width="2" d="M129,-215.8314C129,-208.131 129,-198.9743 129,-190.4166"/>
<polygon fill="#c0c0c0" stroke="#c0c0c0" stroke-width="2" points="132.5001,-190.4132 129,-180.4133 125.5001,-190.4133 132.5001,-190.4132"/>
</g>
<!-- 12 -->
<g id="node13" class="node">
<title>12</title>
<path fill="none" stroke="#d85656" stroke-width="2" d="M309,-252C309,-252 265,-252 265,-252 259,-252 253,-246 253,-240 253,-240 253,-228 253,-228 253,-222 259,-216 265,-216 265,-216 309,-216 309,-216 315,-216 321,-222 321,-228 321,-228 321,-240 321,-240 321,-246 315,-252 309,-252"/>
<text text-anchor="middle" x="287" y="-231.5" font-family="sans" font-size="10.00" fill="#000000">bwa_mem</text>
</g>
<!-- 12&#45;&gt;6 -->
<g id="edge12" class="edge">
<title>12&#45;&gt;6</title>
<path fill="none" stroke="#c0c0c0" stroke-width="2" d="M302.1405,-215.8314C309.1217,-207.454 317.5391,-197.3531 325.1876,-188.1749"/>
<polygon fill="#c0c0c0" stroke="#c0c0c0" stroke-width="2" points="327.9425,-190.3362 331.6556,-180.4133 322.5649,-185.8548 327.9425,-190.3362"/>
</g>
<!-- 12&#45;&gt;9 -->
<g id="edge15" class="edge">
<title>12&#45;&gt;9</title>
<path fill="none" stroke="#c0c0c0" stroke-width="2" d="M274.3829,-215.8314C268.6828,-207.6232 261.8337,-197.7606 255.5641,-188.7323"/>
<polygon fill="#c0c0c0" stroke="#c0c0c0" stroke-width="2" points="258.3658,-186.6306 249.787,-180.4133 252.6162,-190.6234 258.3658,-186.6306"/>
</g>
<!-- 13 -->
<g id="node14" class="node">
<title>13</title>
<path fill="none" stroke="#70d856" stroke-width="2" d="M303,-484C303,-484 235,-484 235,-484 229,-484 223,-478 223,-472 223,-472 223,-460 223,-460 223,-454 229,-448 235,-448 235,-448 303,-448 303,-448 309,-448 315,-454 315,-460 315,-460 315,-472 315,-472 315,-478 309,-484 303,-484"/>
<text text-anchor="middle" x="269" y="-463.5" font-family="sans" font-size="10.00" fill="#000000">samtools_faidx</text>
</g>
<!-- 13&#45;&gt;10 -->
<g id="edge16" class="edge">
<title>13&#45;&gt;10</title>
<path fill="none" stroke="#c0c0c0" stroke-width="2" d="M295.016,-447.9612C307.083,-438.4606 320.7647,-425.9015 330,-412 362.1979,-363.5338 336.0632,-333.7627 372,-288 382.9986,-273.9942 398.7015,-262.5849 413.624,-253.9232"/>
<polygon fill="#c0c0c0" stroke="#c0c0c0" stroke-width="2" points="415.6959,-256.7777 422.7654,-248.8864 412.3178,-250.6467 415.6959,-256.7777"/>
</g>
<!-- 13&#45;&gt;11 -->
<g id="edge19" class="edge">
<title>13&#45;&gt;11</title>
<path fill="none" stroke="#c0c0c0" stroke-width="2" d="M222.8279,-454.6101C198.0693,-446.4054 168.6918,-432.996 149,-412 111.1792,-371.6744 116.2436,-301.5107 122.8687,-262.4012"/>
<polygon fill="#c0c0c0" stroke="#c0c0c0" stroke-width="2" points="126.3701,-262.7138 124.7443,-252.2444 119.4864,-261.4425 126.3701,-262.7138"/>
</g>
<!-- 13&#45;&gt;12 -->
<g id="edge22" class="edge">
<title>13&#45;&gt;12</title>
<path fill="none" stroke="#c0c0c0" stroke-width="2" d="M237.6109,-447.7757C186.5771,-415.7967 95.2993,-347.3328 137,-288 149.5443,-270.1516 203.5179,-253.8085 243.1411,-243.8847"/>
<polygon fill="#c0c0c0" stroke="#c0c0c0" stroke-width="2" points="243.9906,-247.2802 252.8717,-241.503 242.3263,-240.4809 243.9906,-247.2802"/>
</g>
<!-- 14 -->
<g id="node15" class="node">
<title>14</title>
<path fill="none" stroke="#5692d8" stroke-width="2" d="M309.5,-332C309.5,-332 264.5,-332 264.5,-332 258.5,-332 252.5,-326 252.5,-320 252.5,-320 252.5,-308 252.5,-308 252.5,-302 258.5,-296 264.5,-296 264.5,-296 309.5,-296 309.5,-296 315.5,-296 321.5,-302 321.5,-308 321.5,-308 321.5,-320 321.5,-320 321.5,-326 315.5,-332 309.5,-332"/>
<text text-anchor="middle" x="287" y="-311.5" font-family="sans" font-size="10.00" fill="#000000">bwa_index</text>
</g>
<!-- 13&#45;&gt;14 -->
<g id="edge25" class="edge">
<title>13&#45;&gt;14</title>
<path fill="none" stroke="#c0c0c0" stroke-width="2" d="M239.3059,-447.9172C227.2164,-438.8022 214.5621,-426.5731 208,-412 201.4306,-397.4108 201.0018,-390.3884 208,-376 212.8275,-366.0747 232.2031,-350.8019 250.556,-337.8986"/>
<polygon fill="#c0c0c0" stroke="#c0c0c0" stroke-width="2" points="252.6202,-340.7266 258.8605,-332.1645 248.6429,-334.9663 252.6202,-340.7266"/>
</g>
<!-- 18 -->
<g id="node19" class="node">
<title>18</title>
<path fill="none" stroke="#d88d56" stroke-width="2" d="M572.5,-412C572.5,-412 505.5,-412 505.5,-412 499.5,-412 493.5,-406 493.5,-400 493.5,-400 493.5,-388 493.5,-388 493.5,-382 499.5,-376 505.5,-376 505.5,-376 572.5,-376 572.5,-376 578.5,-376 584.5,-382 584.5,-388 584.5,-388 584.5,-400 584.5,-400 584.5,-406 578.5,-412 572.5,-412"/>
<text text-anchor="middle" x="539" y="-397" font-family="sans" font-size="10.00" fill="#000000">survivor_simsv</text>
<text text-anchor="middle" x="539" y="-386" font-family="sans" font-size="10.00" fill="#000000">genotype: hmz</text>
</g>
<!-- 13&#45;&gt;18 -->
<g id="edge30" class="edge">
<title>13&#45;&gt;18</title>
<path fill="none" stroke="#c0c0c0" stroke-width="2" d="M315.3854,-455.3443C356.9654,-445.5695 419.8116,-430.2475 483.6253,-412.009"/>
<polygon fill="#c0c0c0" stroke="#c0c0c0" stroke-width="2" points="484.8169,-415.3081 493.4578,-409.1774 482.8797,-408.5815 484.8169,-415.3081"/>
</g>
<!-- 19 -->
<g id="node20" class="node">
<title>19</title>
<path fill="none" stroke="#d88d56" stroke-width="2" d="M309,-412C309,-412 229,-412 229,-412 223,-412 217,-406 217,-400 217,-400 217,-388 217,-388 217,-382 223,-376 229,-376 229,-376 309,-376 309,-376 315,-376 321,-382 321,-388 321,-388 321,-400 321,-400 321,-406 315,-412 309,-412"/>
<text text-anchor="middle" x="269" y="-397" font-family="sans" font-size="10.00" fill="#000000">survivor_simsv</text>
<text text-anchor="middle" x="269" y="-386" font-family="sans" font-size="10.00" fill="#000000">genotype: hmz&#45;sv</text>
</g>
<!-- 13&#45;&gt;19 -->
<g id="edge32" class="edge">
<title>13&#45;&gt;19</title>
<path fill="none" stroke="#c0c0c0" stroke-width="2" d="M269,-447.8314C269,-440.131 269,-430.9743 269,-422.4166"/>
<polygon fill="#c0c0c0" stroke="#c0c0c0" stroke-width="2" points="272.5001,-422.4132 269,-412.4133 265.5001,-422.4133 272.5001,-422.4132"/>
</g>
<!-- 20 -->
<g id="node21" class="node">
<title>20</title>
<path fill="none" stroke="#d88d56" stroke-width="2" d="M463,-412C463,-412 389,-412 389,-412 383,-412 377,-406 377,-400 377,-400 377,-388 377,-388 377,-382 383,-376 389,-376 389,-376 463,-376 463,-376 469,-376 475,-382 475,-388 475,-388 475,-400 475,-400 475,-406 469,-412 463,-412"/>
<text text-anchor="middle" x="426" y="-397" font-family="sans" font-size="10.00" fill="#000000">survivor_simsv</text>
<text text-anchor="middle" x="426" y="-386" font-family="sans" font-size="10.00" fill="#000000">genotype: htz&#45;sv</text>
</g>
<!-- 13&#45;&gt;20 -->
<g id="edge34" class="edge">
<title>13&#45;&gt;20</title>
<path fill="none" stroke="#c0c0c0" stroke-width="2" d="M308.6177,-447.8314C329.5222,-438.2446 355.3483,-426.4008 377.4488,-416.2655"/>
<polygon fill="#c0c0c0" stroke="#c0c0c0" stroke-width="2" points="379.0364,-419.388 386.6672,-412.038 376.1184,-413.0252 379.0364,-419.388"/>
</g>
<!-- 14&#45;&gt;10 -->
<g id="edge17" class="edge">
<title>14&#45;&gt;10</title>
<path fill="none" stroke="#c0c0c0" stroke-width="2" d="M320.3192,-295.9315C325.5376,-293.2146 330.8932,-290.4908 336,-288 361.4408,-275.5913 390.3795,-262.6358 413.5759,-252.5257"/>
<polygon fill="#c0c0c0" stroke="#c0c0c0" stroke-width="2" points="415.0322,-255.7092 422.8127,-248.5178 412.2458,-249.2876 415.0322,-255.7092"/>
</g>
<!-- 14&#45;&gt;11 -->
<g id="edge20" class="edge">
<title>14&#45;&gt;11</title>
<path fill="none" stroke="#c0c0c0" stroke-width="2" d="M258.0945,-295.9587C253.4286,-293.2103 248.6149,-290.47 244,-288 220.7923,-275.579 194.2309,-263.0036 172.4859,-253.117"/>
<polygon fill="#c0c0c0" stroke="#c0c0c0" stroke-width="2" points="173.7296,-249.8384 163.1752,-248.9137 170.8493,-256.2184 173.7296,-249.8384"/>
</g>
<!-- 14&#45;&gt;12 -->
<g id="edge23" class="edge">
<title>14&#45;&gt;12</title>
<path fill="none" stroke="#c0c0c0" stroke-width="2" d="M287,-295.8468C287,-285.9251 287,-273.4167 287,-262.2492"/>
<polygon fill="#c0c0c0" stroke="#c0c0c0" stroke-width="2" points="290.5001,-262.0814 287,-252.0814 283.5001,-262.0814 290.5001,-262.0814"/>
</g>
<!-- 15 -->
<g id="node16" class="node">
<title>15</title>
<path fill="none" stroke="#afd856" stroke-width="2" d="M568.5,-340C568.5,-340 503.5,-340 503.5,-340 497.5,-340 491.5,-334 491.5,-328 491.5,-328 491.5,-300 491.5,-300 491.5,-294 497.5,-288 503.5,-288 503.5,-288 568.5,-288 568.5,-288 574.5,-288 580.5,-294 580.5,-300 580.5,-300 580.5,-328 580.5,-328 580.5,-334 574.5,-340 568.5,-340"/>
<text text-anchor="middle" x="536" y="-328" font-family="sans" font-size="10.00" fill="#000000">art_illumina</text>
<text text-anchor="middle" x="536" y="-317" font-family="sans" font-size="10.00" fill="#000000">insert_len: 500</text>
<text text-anchor="middle" x="536" y="-306" font-family="sans" font-size="10.00" fill="#000000">insert_sd: 10</text>
<text text-anchor="middle" x="536" y="-295" font-family="sans" font-size="10.00" fill="#000000">read_len: 150</text>
</g>
<!-- 15&#45;&gt;10 -->
<g id="edge18" class="edge">
<title>15&#45;&gt;10</title>
<path fill="none" stroke="#c0c0c0" stroke-width="2" d="M510.1324,-287.805C501.1325,-278.6912 491.0565,-268.4875 482.1182,-259.4362"/>
<polygon fill="#c0c0c0" stroke="#c0c0c0" stroke-width="2" points="484.4432,-256.8094 474.9263,-252.1532 479.4624,-261.7279 484.4432,-256.8094"/>
</g>
<!-- 16 -->
<g id="node17" class="node">
<title>16</title>
<path fill="none" stroke="#afd856" stroke-width="2" d="M222.5,-340C222.5,-340 157.5,-340 157.5,-340 151.5,-340 145.5,-334 145.5,-328 145.5,-328 145.5,-300 145.5,-300 145.5,-294 151.5,-288 157.5,-288 157.5,-288 222.5,-288 222.5,-288 228.5,-288 234.5,-294 234.5,-300 234.5,-300 234.5,-328 234.5,-328 234.5,-334 228.5,-340 222.5,-340"/>
<text text-anchor="middle" x="190" y="-328" font-family="sans" font-size="10.00" fill="#000000">art_illumina</text>
<text text-anchor="middle" x="190" y="-317" font-family="sans" font-size="10.00" fill="#000000">insert_len: 500</text>
<text text-anchor="middle" x="190" y="-306" font-family="sans" font-size="10.00" fill="#000000">insert_sd: 10</text>
<text text-anchor="middle" x="190" y="-295" font-family="sans" font-size="10.00" fill="#000000">read_len: 150</text>
</g>
<!-- 16&#45;&gt;11 -->
<g id="edge21" class="edge">
<title>16&#45;&gt;11</title>
<path fill="none" stroke="#c0c0c0" stroke-width="2" d="M170.0263,-287.805C163.2855,-278.9646 155.7628,-269.0988 149.0186,-260.2538"/>
<polygon fill="#c0c0c0" stroke="#c0c0c0" stroke-width="2" points="151.6885,-257.9831 142.8418,-252.1532 146.1221,-262.2275 151.6885,-257.9831"/>
</g>
<!-- 17 -->
<g id="node18" class="node">
<title>17</title>
<path fill="none" stroke="#afd856" stroke-width="2" d="M457.5,-340C457.5,-340 392.5,-340 392.5,-340 386.5,-340 380.5,-334 380.5,-328 380.5,-328 380.5,-300 380.5,-300 380.5,-294 386.5,-288 392.5,-288 392.5,-288 457.5,-288 457.5,-288 463.5,-288 469.5,-294 469.5,-300 469.5,-300 469.5,-328 469.5,-328 469.5,-334 463.5,-340 457.5,-340"/>
<text text-anchor="middle" x="425" y="-328" font-family="sans" font-size="10.00" fill="#000000">art_illumina</text>
<text text-anchor="middle" x="425" y="-317" font-family="sans" font-size="10.00" fill="#000000">insert_len: 500</text>
<text text-anchor="middle" x="425" y="-306" font-family="sans" font-size="10.00" fill="#000000">insert_sd: 10</text>
<text text-anchor="middle" x="425" y="-295" font-family="sans" font-size="10.00" fill="#000000">read_len: 150</text>
</g>
<!-- 17&#45;&gt;12 -->
<g id="edge24" class="edge">
<title>17&#45;&gt;12</title>
<path fill="none" stroke="#c0c0c0" stroke-width="2" d="M380.1954,-288.0263C363.063,-278.0945 343.6521,-266.8418 326.9972,-257.1868"/>
<polygon fill="#c0c0c0" stroke="#c0c0c0" stroke-width="2" points="328.4667,-253.9931 318.0599,-252.0058 324.956,-260.0491 328.4667,-253.9931"/>
</g>
<!-- 18&#45;&gt;15 -->
<g id="edge26" class="edge">
<title>18&#45;&gt;15</title>
<path fill="none" stroke="#c0c0c0" stroke-width="2" d="M538.3193,-375.8468C538.036,-368.2921 537.6964,-359.2376 537.3657,-350.4174"/>
<polygon fill="#c0c0c0" stroke="#c0c0c0" stroke-width="2" points="540.8577,-350.1364 536.9853,-340.2746 533.8626,-350.3988 540.8577,-350.1364"/>
</g>
<!-- 19&#45;&gt;16 -->
<g id="edge27" class="edge">
<title>19&#45;&gt;16</title>
<path fill="none" stroke="#c0c0c0" stroke-width="2" d="M251.0737,-375.8468C242.8025,-367.4709 232.7109,-357.2515 223.1323,-347.5517"/>
<polygon fill="#c0c0c0" stroke="#c0c0c0" stroke-width="2" points="225.4631,-344.9308 215.9462,-340.2746 220.4823,-349.8493 225.4631,-344.9308"/>
</g>
<!-- 20&#45;&gt;17 -->
<g id="edge28" class="edge">
<title>20&#45;&gt;17</title>
<path fill="none" stroke="#c0c0c0" stroke-width="2" d="M425.7731,-375.8468C425.6787,-368.2921 425.5655,-359.2376 425.4552,-350.4174"/>
<polygon fill="#c0c0c0" stroke="#c0c0c0" stroke-width="2" points="428.9532,-350.2301 425.3284,-340.2746 421.9538,-350.3176 428.9532,-350.2301"/>
</g>
<!-- 21 -->
<g id="node22" class="node">
<title>21</title>
<path fill="none" stroke="#56c9d8" stroke-width="2" d="M459.5,-484C459.5,-484 392.5,-484 392.5,-484 386.5,-484 380.5,-478 380.5,-472 380.5,-472 380.5,-460 380.5,-460 380.5,-454 386.5,-448 392.5,-448 392.5,-448 459.5,-448 459.5,-448 465.5,-448 471.5,-454 471.5,-460 471.5,-460 471.5,-472 471.5,-472 471.5,-478 465.5,-484 459.5,-484"/>
<text text-anchor="middle" x="426" y="-469" font-family="sans" font-size="10.00" fill="#000000">survivor_config</text>
<text text-anchor="middle" x="426" y="-458" font-family="sans" font-size="10.00" fill="#000000">svtype: indel</text>
</g>
<!-- 21&#45;&gt;18 -->
<g id="edge29" class="edge">
<title>21&#45;&gt;18</title>
<path fill="none" stroke="#c0c0c0" stroke-width="2" d="M454.5147,-447.8314C468.8342,-438.7074 486.3624,-427.539 501.7338,-417.7449"/>
<polygon fill="#c0c0c0" stroke="#c0c0c0" stroke-width="2" points="503.9417,-420.4882 510.4945,-412.1628 500.1801,-414.5847 503.9417,-420.4882"/>
</g>
<!-- 21&#45;&gt;19 -->
<g id="edge31" class="edge">
<title>21&#45;&gt;19</title>
<path fill="none" stroke="#c0c0c0" stroke-width="2" d="M386.3823,-447.8314C365.4778,-438.2446 339.6517,-426.4008 317.5512,-416.2655"/>
<polygon fill="#c0c0c0" stroke="#c0c0c0" stroke-width="2" points="318.8816,-413.0252 308.3328,-412.038 315.9636,-419.388 318.8816,-413.0252"/>
</g>
<!-- 21&#45;&gt;20 -->
<g id="edge33" class="edge">
<title>21&#45;&gt;20</title>
<path fill="none" stroke="#c0c0c0" stroke-width="2" d="M426,-447.8314C426,-440.131 426,-430.9743 426,-422.4166"/>
<polygon fill="#c0c0c0" stroke="#c0c0c0" stroke-width="2" points="429.5001,-422.4132 426,-412.4133 422.5001,-422.4133 429.5001,-422.4132"/>
</g>
</g>
</svg>
